# xmcd
#
# Track frame offsets:
#	150
#	17396
#	31388
#	50061
#	66003
#	84129
#	99565
#	112967
#	126943
#	143271
#	156513
#
# Disc length: 2374 seconds
#
# Revision: 0
# Processed by: cddbd v1.5.2PL0 Copyright (c) Steve Scherf et al.
# Submitted via: dBpowerAMP V4.0
#
DISCID=8309440b
DTITLE=Josh Turner - Your Man
DYEAR=2006
DGENRE=Country
TTITLE0=01 - Would You Go With Me
TTITLE1=02 -  Baby's Gone Home To Mama
TTITLE2=03 - No Rush
TTITLE3=04 - Your Man
TTITLE4=05 - Loretta Lynn's Lincoln
TTITLE5=06 - White Noise
TTITLE6=07 - Angels Fall Sometimes
TTITLE7=08 - Lord Have Mercy On A Country Boy
TTITLE8=09 - Me And God
TTITLE9=10 - Gravity
TTITLE10=11 - Way Down South
EXTD=Great music.
EXTT0=
EXTT1=
EXTT2=
EXTT3=
EXTT4=
EXTT5=
EXTT6=
EXTT7=
EXTT8=
EXTT9=
EXTT10=
PLAYORDER=
